<?xml version="1.0" encoding="UTF-8"?>
<svg id="Layer_1" xmlns="http://www.w3.org/2000/svg" version="1.1" viewBox="0 0 71 37">
  <!-- Generator: Adobe Illustrator 30.1.0, SVG Export Plug-In . SVG Version: 2.1.1 Build 136)  -->
  <defs>
    <style>
      .st0 {
        fill: #0058ab;
      }

      .st1 {
        fill: #f53b53;
      }
    </style>
  </defs>
  <circle class="st1" cx="68.48" cy="2.32" r="2.15" />
  <path
    class="st0"
    d="M57.91,2.52l1.98-.33v4.57s5.37,0,5.37,0v1.37c0,.86-.7,1.55-1.55,1.55h-3.82s0,6.15,0,6.15c0,1.21.19,2.08.58,2.6s1.04.78,1.96.78c.64,0,1.2-.07,1.69-.2.49-.13.88-.26,1.17-.38l.36,1.72c.13.64-.14,1.19-.93,1.46-.42.14-1.38.4-2.75.4-1.08,0-1.98-.14-2.7-.43s-1.3-.71-1.72-1.26c-.42-.55-.72-1.21-.89-1.99s-.26-1.67-.26-2.67V4.3c0-.88.64-1.64,1.52-1.78ZM70.25,9.07c0-1.27-1.03-2.31-2.31-2.31h-1.19s0,12.59,0,12.59c0,1.39,1.13,2.52,2.52,2.52h.98s0-12.8,0-12.8ZM41.36,14.4c0-1.32.2-2.49.59-3.48.39-1,.92-1.83,1.57-2.49.65-.66,1.4-1.16,2.25-1.5.84-.34,1.71-.5,2.59-.5,2.07,0,3.69.64,4.85,1.93,1.16,1.29,1.74,3.21,1.74,5.76,0,.19,0,.41-.02.65,0,.24-.02.46-.04.65h-9.93c.1,1.21.52,2.14,1.28,2.81.76.66,1.86.99,3.3.99.84,0,1.62-.08,2.32-.23.18-.04.34-.08.5-.12.63-.16,1.26.27,1.37.91l.25,1.56c-.19.1-.46.2-.79.3-.34.11-.72.2-1.15.29-.43.09-.9.16-1.4.22s-1.01.09-1.53.09c-1.32,0-2.48-.2-3.45-.59s-1.78-.94-2.42-1.64c-.63-.7-1.1-1.53-1.41-2.48-.31-.95-.46-1.99-.46-3.12ZM51.47,12.85c0-.48-.07-.94-.2-1.37s-.33-.81-.59-1.12c-.26-.32-.58-.57-.95-.75-.37-.18-.82-.27-1.34-.27s-1.01.1-1.41.3c-.4.2-.74.46-1.02.79s-.49.7-.65,1.12c-.15.42-.26.85-.32,1.3h6.48ZM26.4,14.29c0,1.2-.17,2.28-.5,3.27-.34.98-.81,1.82-1.43,2.51-.61.69-1.36,1.23-2.22,1.62-.87.38-1.82.58-2.86.58s-1.99-.19-2.85-.58c-.86-.39-1.59-.93-2.21-1.62-.61-.69-1.09-1.53-1.44-2.51-.34-.98-.52-2.07-.51-3.27s.17-2.28.52-3.25c.34-.97.83-1.81,1.45-2.5.62-.69,1.36-1.23,2.22-1.6.86-.37,1.8-.56,2.82-.56s1.97.19,2.83.56c.87.38,1.61.91,2.22,1.6.61.69,1.09,1.53,1.44,2.5.34.97.52,2.06.52,3.25ZM22.94,14.29c0-1.5-.31-2.69-.93-3.57-.62-.88-1.49-1.31-2.61-1.32s-1.99.44-2.61,1.31c-.62.88-.94,2.07-.94,3.57,0,1.52.31,2.73.94,3.61.62.89,1.49,1.33,2.61,1.33s1.99-.44,2.61-1.33c.62-.89.94-2.09.94-3.61ZM11.36,16.1c-.17-.48-.45-.91-.82-1.29-.37-.38-.85-.71-1.43-1.01-.58-.3-1.28-.6-2.11-.91-.5-.17-.92-.34-1.27-.51-.35-.16-.63-.33-.84-.49-.21-.16-.36-.34-.45-.53-.09-.19-.13-.41-.13-.66,0-.5.22-.87.67-1.11.44-.24,1.02-.36,1.73-.36.57,0,1.1.04,1.57.12,0,0,.29.05.29.05,1.01.12,1.97-.53,2.18-1.54l.15-.76c-.69-.23-1.36-.38-1.82-.47-.61-.12-1.52-.25-2.54-.25-1.75,0-3.14.4-4.16,1.2-1.02.8-1.53,1.89-1.53,3.28,0,.71.11,1.31.33,1.81.22.49.52.91.91,1.26.39.35.84.65,1.37.91.53.26,1.11.51,1.75.74,1.04.39,1.79.74,2.24,1.07.45.33.68.74.68,1.24,0,.54-.21.92-.64,1.14s-1.1.33-2.02.33-1.71-.11-2.17-.22c-.39-.09-.61-.17-.96-.17-.9,0-1.73.56-1.98,1.47l-.22.78c.41.19,1.4.52,2.07.69.73.19,1.62.34,3.23.34,1.98,0,3.51-.37,4.58-1.11,1.07-.74,1.6-1.83,1.6-3.28,0-.67-.09-1.25-.26-1.73ZM8.5,29.28c.45,0,.79.08,1.02.24.24.16.36.42.36.76,0,.18-.03.33-.09.46-.06.13-.16.23-.28.31-.12.08-.27.14-.44.18-.17.04-.37.06-.6.06h-.28v1.08h-.56v-3.02c.13-.03.27-.05.43-.06.16-.01.3-.02.44-.02ZM8.53,29.76c-.14,0-.26,0-.35.01v1.04h.27c.27,0,.47-.04.62-.11.14-.08.22-.22.22-.43,0-.1-.02-.18-.06-.25-.04-.07-.09-.12-.16-.16-.07-.04-.15-.07-.24-.08s-.19-.02-.3-.02ZM10.89,30c.18,0,.33.02.45.07.12.04.22.11.29.19.07.08.12.18.15.29.03.11.05.24.05.37v1.4c-.08.02-.21.04-.37.06-.17.02-.35.04-.57.04-.14,0-.27-.01-.38-.04-.12-.03-.21-.07-.29-.13s-.14-.14-.19-.23c-.05-.09-.07-.21-.07-.35s.03-.25.08-.34c.05-.09.12-.17.21-.22.09-.06.19-.1.31-.12.12-.03.24-.04.37-.04.06,0,.12,0,.19.01.06,0,.13.02.21.04v-.09c0-.06,0-.12-.02-.18-.02-.06-.04-.11-.08-.15s-.08-.08-.15-.1c-.06-.02-.14-.04-.23-.04-.12,0-.24,0-.34.03-.1.02-.19.04-.25.06l-.07-.43c.07-.02.17-.05.3-.07s.27-.04.42-.04ZM10.94,32c.17,0,.29,0,.38-.03v-.59s-.07-.02-.13-.03c-.06,0-.12-.01-.19-.01-.06,0-.12,0-.18.01-.06,0-.12.03-.16.05-.05.02-.09.06-.12.1s-.04.1-.04.16c0,.13.04.21.12.26.08.05.19.07.32.07ZM13.49,30.54s-.11-.03-.18-.05c-.08-.02-.17-.02-.27-.02-.06,0-.12,0-.19.02-.07.01-.11.02-.14.03v1.85h-.54v-2.2c.1-.04.23-.07.39-.11.15-.03.33-.05.52-.05.04,0,.08,0,.12,0,.05,0,.09.01.14.02.05,0,.09.02.14.03.04.01.08.02.11.03l-.09.45ZM13.81,29.45l.54-.09v.7h.82v.45h-.82v.94c0,.19.03.32.09.4s.16.12.3.12c.1,0,.18-.01.26-.03.07-.02.13-.04.18-.06l.09.42c-.06.03-.14.05-.24.08s-.22.04-.35.04c-.17,0-.3-.02-.41-.07s-.2-.11-.26-.19c-.06-.08-.11-.19-.14-.31-.03-.12-.04-.26-.04-.41v-2ZM18.63,31.21c0,.18-.03.35-.08.5-.05.15-.13.28-.23.39-.1.11-.21.19-.35.25s-.29.09-.45.09-.32-.03-.45-.09-.25-.14-.35-.25c-.1-.11-.17-.23-.23-.39-.05-.15-.08-.32-.08-.5s.03-.35.08-.5c.06-.15.13-.28.23-.38.1-.11.22-.19.35-.25.14-.06.28-.09.45-.09s.31.03.45.09c.14.06.25.14.35.25.1.11.17.23.23.38.06.15.08.32.08.5ZM18.08,31.21c0-.23-.05-.41-.15-.55-.1-.13-.24-.2-.41-.2s-.32.07-.41.2c-.1.13-.15.32-.15.55s.05.42.15.55c.1.14.24.2.41.2s.32-.07.41-.2c.1-.14.15-.32.15-.55ZM19.85,28.94c.12,0,.23.01.33.03.09.02.16.04.21.06l-.1.44s-.11-.04-.18-.06-.14-.02-.21-.02c-.08,0-.16.01-.22.04s-.11.06-.14.1c-.04.04-.06.1-.07.16-.01.06-.02.13-.02.21v.15h.84v.45h-.84v1.87h-.54v-2.48c0-.3.08-.53.23-.7.16-.17.39-.25.71-.25ZM37.7,6.69c-.98-.17-2.02-.26-3.11-.26s-2.14.18-3.02.55c-.89.37-1.64.88-2.26,1.53-.62.66-1.09,1.45-1.42,2.37-.32.93-.49,1.94-.49,3.04,0,1.18.15,2.21.46,3.11.31.9.73,1.64,1.28,2.24.55.6,1.2,1.05,1.97,1.36.77.31,1.61.46,2.54.46.7,0,1.33-.09,1.87-.26.47-.15.86-.3,1.18-.45,0,1.47-.62,2.64-2.57,3.13-.8.2-1.87.14-3.3-.26-.39.73-.62,1.99-.01,2.72.53.63,1.85.76,2.68.76,1.86,0,3.88-.8,4.84-1.67,1.24-1.13,1.86-2.92,1.86-5.36V7.23c-.68-.19-1.51-.38-2.49-.55ZM36.7,17.41c-.29.21-.66.4-1.12.55-.46.15-.95.23-1.48.23-.96,0-1.74-.34-2.34-1.03-.61-.68-.91-1.77-.91-3.25,0-1.37.32-2.47.95-3.31.63-.84,1.54-1.26,2.74-1.26.52,0,.96.02,1.3.07.34.05.63.1.87.16v7.83ZM70.41,29.35c-.23-.76-.69-1.43-1.31-1.99-.66-.61-1.45-1.07-2.28-1.41-.07-.03-.13-.06-.2-.08h0s0,0,0,0c-1.02,1.22-4.55,2.13-4.55,4.69,0,1,.63,1.94,1.56,2.31.58.2,1.2.16,1.75-.09s.94-.67,1.27-1.15c.35-.51.61-1.06.94-1.58.31-.48.7-.96,1.28-1.09.53-.12,1.15.01,1.53.4ZM70.43,29.87c-.23-.47-.73-.67-1.23-.64s-.84.33-1.11.71c-.31.43-.52.92-.77,1.39s-.5.89-.85,1.26c-.39.42-.87.73-1.41.89.25.18.6.22.9.23.34.01.68-.02,1.02-.08.61-.11,1.27-.32,1.72-.77-.7,0-1.27-.46-1.32-1.18.45.55,1.14.76,1.82.56.6-.17,1.08-.65,1.28-1.24.12-.38.14-.78-.04-1.15ZM60.52,29.5c0-.56-.03-.94-.4-.94-.17,0-.25.03-.4.08.13,1.91-.3,3.59-.83,3.59-.69,0-.35-4.09-1.81-4.09-1.35,0-1.54,3.26-1.69,3.26-.1,0-.12-.86-.12-1.51.06-.31.09-.59.09-.81,0-.3-.12-.83-.81-.57.02,2.33-.44,3.75-.97,3.75-.77,0-.78-2.12-.78-2.7s.04-1.33-.81-1.06c-.13,2.04-.66,3.57-1,3.57-.5,0-.4-3.52-1.49-3.52-.97,0-1.28,3.33-1.48,3.33-.36,0,.11-3.75-1.29-3.75-.74,0-1.03,1.25-1.32,2.65-.06.27-.12.28-.12-.03,0-.25,0-.53,0-.79.36-1.41-.08-1.93-.73-1.55.21,2.6-.98,3.87-1.9,3.87-.33,0-.59-.14-.79-.36,1.1-.67,1.59-1.45,1.59-2.2,0-.82-.47-1.29-1.25-1.29-1.09,0-1.7,1.12-1.7,2.07,0,.51.1.95.25,1.31-.37.18-.73.33-1.06.48-.03-.98-.14-2.01-.22-2.96-.58-.16-.75.12-.79.64-.1,1.18-.54,1.91-.92,1.91-.29,0-.47-.35-.49-.73-.11-1.89,1.42-2.41,2.23-2.14.17-.42-.02-.72-.74-.72-.88,0-1.53.53-2.01,1.22-.32.46-.69.78-1.18,1.17.01-.11.02-.23.02-.34,0-1.33-.72-1.92-1.41-1.92-.57,0-.93.34-1.14.87-.05-.53-.16-.75-.46-.75-.13,0-.31.04-.51.13.09.29.12.94.12,1.37,0,1.6-.46,2.32-.9,2.32-.5,0-.58-1.9-.63-2.64-.07-.02-.14-.05-.25-.05-.46,0-.52.61-.63,1.18-.12.62-.48,1.41-1.02,1.41-.32,0-.52-.31-.55-.87-.05-1.13.89-2.47,2.36-2.06.19-.45-.11-.79-.72-.79-1.08,0-1.97.81-2.35,1.76-.39.87-1.08,2.16-2.49,2.16-.99,0-1.75-.86-1.75-2.68,0-1.56.99-3.05,2.04-3.05.74,0,.91.72.84,1.4.38.31,1.01.02,1.01-.74,0-.53-.43-1.42-1.81-1.42-1.71,0-3.22,1.7-3.22,3.94s1.1,3.45,2.66,3.45c.98,0,1.91-.56,2.55-1.6.16.91.78,1.29,1.24,1.29.75,0,1.24-.48,1.5-1.14.17.66.52,1.14,1.1,1.14.41,0,.73-.21.97-.54-.1,2.28-.22,3.74,1.13,3.45-.21-.65-.28-1.83-.28-2.89,0-2.91.48-3.86,1.08-3.86.44,0,.58.55.58,1.15,0,.32-.03.68-.11,1.01-.74.46-1.33.83-1.33,1.3,0,.37.27.4.51.4.57,0,1.25-.56,1.63-1.61.33-.2.66-.43.98-.74-.01.11-.02.21-.02.32,0,1.04.46,1.67,1.18,1.67.57,0,1-.4,1.3-1.01.02.35.03.67.04.97-1.16.53-2.44,1.08-2.44,2.59,0,.78.56,1.37,1.3,1.37,1.61,0,1.98-1.7,1.99-3.68.52-.23.92-.4,1.37-.63.39.48.91.72,1.39.72.91,0,1.59-.48,2.14-1.46.1.74.29,1.46.69,1.46.72,0,.87-3.77,1.4-3.77.41,0,.07,4.08,1.16,4.08.93,0,1.1-3.59,1.55-3.59.32,0,.35,3.28,1.36,3.28.5,0,1.04-.6,1.31-1.85.13.83.55,1.85,1.37,1.85.48,0,.89-.48,1.21-1.13.09.66.28,1.13.64,1.13.94,0,.91-3.76,1.66-3.76.58,0,.4,3.76,1.79,3.76.66,0,.97-.56,1.16-1.27.26,1.04.67,1.27,1.01,1.27.21,0,.38-.08.59-.33-1.07-.47-.98-2.16-.98-3.26ZM37.79,35.96c-.33,0-.51-.32-.51-.67,0-.96.71-1.48,1.58-1.92-.04,2.11-.53,2.59-1.07,2.59ZM42.13,29.12c.32,0,.51.3.48.73-.04.5-.4,1.08-1.04,1.53-.33-.95-.09-2.26.56-2.26ZM51.85,27.14c0-.32.25-.58.56-.59.31-.01.52.24.52.55,0,.32-.22.58-.53.59-.31.01-.56-.24-.56-.55ZM59.6,27.33c0-.3.23-.55.51-.56.28-.01.51.23.51.53,0,.3-.23.55-.51.56-.28.01-.51-.23-.51-.53Z"
  />
</svg>
